<svg width="557" height="741" viewBox="0 0 557 741" fill="none" xmlns="http://www.w3.org/2000/svg">
<path d="M91.4 74.2599C64.37 75.8599 42.18 96.1999 38.24 122.98C29.86 180.01 14.87 282.28 0 384.88V676.72C0 712.22 28.78 740.99 64.27 740.99H492.72C528.22 740.99 556.99 712.21 556.99 676.72V64.2699C556.99 58.2499 556.14 52.4299 554.6 46.9099L91.39 74.2599H91.4Z" fill="#E74622"/>
<path d="M91.3998 74.26L554.61 46.91C547.03 19.85 522.21 0 492.73 0H64.2798C28.7798 0 0.00976562 28.78 0.00976562 64.27V384.88C14.8798 282.28 29.8698 180 38.2498 122.98C42.1898 96.19 64.3798 75.85 91.4098 74.26H91.3998Z" fill="#932925"/>
<g style="mix-blend-mode:hard-light" opacity="0.25">
<path d="M442 140.77H347.01L347.07 262.3H218.84L210.68 140.77H114.01L140.44 262.3L139.1 609.17C139.65 612.58 151.89 613.77 155.35 613.77H161.77C165.66 613.77 168.81 610.62 168.81 606.73V592.47C168.81 587.92 172.5 584.23 177.05 584.23H210.26C214.81 584.23 218.5 587.92 218.5 592.47V606.73C218.5 610.62 221.65 613.77 225.54 613.77H250.42C254.31 613.77 257.46 610.62 257.46 606.73V592.47C257.46 587.92 261.15 584.23 265.7 584.23H298.91C303.46 584.23 307.15 587.92 307.15 592.47V606.73C307.15 610.62 310.3 613.77 314.19 613.77H337.04C340.93 613.77 344.08 610.62 344.08 606.73V592.47C344.08 587.92 347.77 584.23 352.32 584.23H385.53C390.08 584.23 393.77 587.92 393.77 592.47V606.73C393.77 610.62 396.92 613.77 400.81 613.77H407.47C410.93 613.77 422.61 610.97 425.96 608.47L418.55 262.3L442.03 140.77H442Z" fill="black"/>
</g>
<path d="M466 233H91C79.9543 233 71 241.954 71 253C71 264.046 79.9543 273 91 273H466C477.046 273 486 264.046 486 253C486 241.954 477.046 233 466 233Z" fill="white"/>
<path d="M466 321H91C79.9543 321 71 329.954 71 341C71 352.046 79.9543 361 91 361H466C477.046 361 486 352.046 486 341C486 329.954 477.046 321 466 321Z" fill="white"/>
<path d="M466 409H91C79.9543 409 71 417.954 71 429C71 440.046 79.9543 449 91 449H466C477.046 449 486 440.046 486 429C486 417.954 477.046 409 466 409Z" fill="white"/>
<path d="M466 497H91C79.9543 497 71 505.954 71 517C71 528.046 79.9543 537 91 537H466C477.046 537 486 528.046 486 517C486 505.954 477.046 497 466 497Z" fill="white"/>
<g style="mix-blend-mode:soft-light">
<path d="M496 675H271C264.373 675 259 680.373 259 687C259 693.627 264.373 699 271 699H496C502.627 699 508 693.627 508 687C508 680.373 502.627 675 496 675Z" fill="white"/>
</g>
</svg>
