<svg width="674" height="674" viewBox="0 0 674 674" fill="none" xmlns="http://www.w3.org/2000/svg">
<path d="M609.76 533.23C606.76 539.51 602.14 544.66 597.79 549.95C587.18 562.87 575.76 575.08 563.31 586.24C554.13 594.46 544.75 602.47 534.66 609.61C518.94 620.73 502.59 630.81 485.33 639.33C468.77 647.5 451.63 654.21 433.87 659.47C422.28 662.9 410.55 665.71 398.75 668.04C387.58 670.25 376.22 671.64 364.81 672.49C340.87 674.27 316.98 673.82 293.19 670.83C278.2 668.94 263.39 665.95 248.76 661.95C228.06 656.29 208.08 648.85 188.86 639.39C175.4 632.77 162.46 625.23 149.99 616.83C137.2 608.22 124.96 598.94 113.46 588.74C99.2601 576.14 86.2501 562.35 74.4201 547.46C60.5501 530 48.2301 511.55 38.0601 491.67C25.6901 467.49 16.2101 442.3 9.81012 415.88C2.25012 384.67 -0.539882 353.04 0.780119 321.04C1.49012 303.93 3.63012 286.93 7.00012 270.11C11.1501 249.39 17.2701 229.25 25.2101 209.69C33.6101 188.98 44.2501 169.43 56.5201 150.75C64.2301 139.01 72.9001 128.02 81.9501 117.29C94.4901 102.43 108.57 89.1902 123.45 76.7602C135.45 66.7502 148.28 57.9602 161.6 49.7702C178.15 39.5902 195.4 30.8902 213.45 23.7702C228.02 18.0202 242.97 13.5302 258.2 9.77021C288.6 2.26021 319.44 -0.329798 350.64 0.680202C368.97 1.2702 387.11 3.66021 405.09 7.27021C430.84 12.4502 455.46 20.9302 479.32 31.8802C495.14 39.1402 510 47.9502 524.49 57.5102C540.36 67.9902 555.1 79.8902 568.9 92.9002C584.05 107.17 597.66 122.82 609.9 139.73C626.41 162.54 639.79 187.05 650.23 213.1C659.23 235.56 665.51 258.87 669.27 282.83C672.78 305.22 674.13 327.73 673.24 350.36C672.52 368.69 670.38 386.85 666.66 404.85C661.48 429.9 653.83 454.13 643.09 477.34C635.4 493.95 626.62 509.97 616.07 524.97C614.18 527.65 613.08 530.96 610.02 532.72C609.78 531.25 609.71 529.85 610.88 528.63C615.53 523.76 618.17 517.5 622.17 512.14C627.68 504.77 630.87 495.97 635.66 488.06C640.68 479.79 643.87 470.39 647.73 461.42C649.66 456.93 650.6 452.09 652.45 447.52C653.53 444.85 655.07 442.35 655.65 439.23C656.4 435.21 656.97 430.85 658.78 427.16C660.48 423.7 661.77 419.96 662.24 416.48C663.35 408.23 665.74 400.28 667 392.08C668.96 379.29 671.06 366.46 671.14 353.56C671.25 334.78 672.16 316 669.14 297.22C666.66 281.76 664.22 266.36 660.53 251.13C659.71 247.73 656.73 245.3 656.97 241.67C657.33 236.15 654.35 231.51 652.79 226.57C650.59 219.61 647.71 212.82 644.69 206.11C642.52 201.3 640.96 196.26 638.32 191.59C636.02 187.54 633.85 183.36 631.78 179.2C628.77 173.14 624.91 167.58 621.94 161.49C619.98 157.47 616.62 154.1 614.25 150.18C608.87 141.28 602.1 133.36 595.88 125.08C594.33 123.01 593.19 119.78 589.91 119.15C589.24 116.29 586.75 115.03 584.54 112.46C585.93 117.48 586.77 118.44 589.9 119.16C589.71 121.27 590.59 122.94 591.71 124.68C596.56 132.16 601.76 139.4 606.03 147.27C610.28 155.09 613.92 163.21 617.96 171.12C623.84 182.62 627.95 194.81 632.4 206.89C636.32 217.54 638.66 228.58 641.6 239.47C643.37 246.01 643.74 252.92 645.13 259.58C648.54 275.84 649.07 292.4 649.48 308.85C649.88 324.65 649.17 340.52 646.73 356.3C645.1 366.83 643.25 377.34 641.46 387.83C639.93 396.81 636.88 405.54 634.22 414.27C632.63 419.49 631.37 424.91 628.98 429.93C625.26 437.77 622.92 446.22 618.62 453.8C615.53 459.25 613.08 465.03 610.13 470.57C606 478.35 601.95 486.17 597.25 493.61C593.54 499.48 588.98 504.81 585.29 510.68C578.98 520.7 571.25 529.62 563.38 538.3C553.9 548.76 543.85 558.77 532.96 567.85C526.56 573.19 520.58 579.17 513.64 583.68C503.19 590.47 493.22 598.03 482.18 603.93C475.8 607.34 469.76 611.3 463.13 614.33C455.26 617.93 447.34 621.42 439.48 625.05C430.38 629.26 420.82 632.16 411.31 635.07C402 637.91 392.45 640.02 382.92 642.14C374.41 644.03 365.8 645.08 357.24 646.53C350.32 647.7 343.3 647.84 336.32 648.38C327.87 649.03 319.36 649.76 310.98 649.45C301.75 649.11 292.46 649.3 283.25 648.15C277.23 647.4 271.13 647.16 265.17 646.06C253.12 643.84 241.06 641.74 229.12 638.86C217.71 636.11 206.63 632.43 195.66 628.52C183.86 624.32 172.38 619.12 161.38 612.97C154.72 609.24 147.53 606.43 141.03 602.46C132.72 597.38 124.93 591.45 116.77 586.1C115.32 585.15 113.96 583.3 111.38 583.84C116.33 588.29 120.59 593.19 125.83 596.52C131.4 600.05 136.14 604.59 141.72 608.13C147.2 611.61 152.59 615.46 157.95 619.26C160.21 620.86 162 623.18 164.7 624.08C170.36 625.96 175.3 629.33 180.3 632.31C186.79 636.17 193.43 639.7 200.34 642.46C211.68 646.99 222.87 651.98 234.63 655.47C239.56 656.94 244.53 658.4 249.43 659.91C258.85 662.8 268.72 664.22 278.39 666.29C290.02 668.79 301.88 670.64 313.65 671.03C340.91 671.92 368.25 672.17 395.19 666.52C404.32 664.6 413.47 662.81 422.55 660.64C425.52 659.93 427.68 657.46 430.94 657.69C435.11 657.98 439.39 656.27 442.59 654.65C450.51 650.65 459.02 648.31 467.15 645.2C478.29 640.94 488.11 634.35 498.98 629.82C501.15 628.92 502.38 626.73 504.49 625.99C511.4 623.53 516.65 618.37 522.93 614.89C527.22 612.51 530.87 608.96 534.87 606.29C545.3 599.33 554.65 591.16 563.75 582.72C571.6 575.43 579.27 567.89 586.29 559.72C593.14 551.75 600.45 544.19 606.28 535.4C607.16 534.07 607.99 533.05 609.71 533.27L609.76 533.23ZM139.91 517.32C144.06 524.45 150.27 529.57 156.64 534.54C162.52 540.7 169.27 545.79 176.01 550.95C197.86 567.68 221.86 580.46 247.69 589.73C263.15 595.28 279.05 599.48 295.35 601.79C305.43 603.22 315.52 605.04 325.79 604.2C326.19 604.81 326.79 605.03 327.47 605.03C334.82 604.99 342.18 605.58 349.52 604.78C350.08 605.21 350.69 605.2 351.38 605.17C364.77 604.54 377.96 602.61 391.13 600.1C416.09 595.36 439.51 586.5 462.03 574.98C478.01 566.81 492.78 556.77 506.82 545.66C511.03 542.33 515.58 539.25 518.5 534.53C522.93 530.15 527.38 525.78 531.77 521.36C532.86 520.26 534.27 519.3 534.27 517.47C536.2 517.67 537.06 516.22 538.08 515.02C544.49 507.47 550.71 499.81 556.43 491.68C565.99 478.11 574.26 463.85 581.24 448.83C590.36 429.17 596.85 408.64 600.94 387.36C603.12 376.04 604.69 364.64 604.95 353.09C606.08 352.02 605.66 350.61 605.72 349.33C606.03 342.73 605.72 336.15 605.04 329.59C605.57 320.54 604.56 311.59 603.48 302.63C601.17 283.48 596.68 264.79 590.2 246.67C581.88 223.38 570.48 201.59 556.05 181.47C549.66 172.55 543.31 163.55 534.83 156.37C534.61 153.53 532.24 152.18 530.48 150.57C526.36 146.82 523.26 141.95 518.14 139.3C517.87 137.21 516.18 136.29 514.77 135.1C504.19 126.14 493.24 117.68 481.54 110.21C472.73 104.59 463.51 99.7302 454.18 95.0202C446.38 91.0802 438.34 87.8002 430.16 84.8702C421.45 81.7602 412.72 78.5302 403.74 76.4302C393.84 74.1202 383.88 71.8002 373.69 70.9102C365.66 70.2102 357.7 68.4202 349.56 69.1202C341.62 67.9202 333.68 68.4302 325.74 69.1602C321.48 68.3902 317.3 69.2702 313.08 69.6602C302.93 70.6002 292.83 72.0202 282.89 74.1202C269.18 77.0202 255.8 81.0202 242.58 85.8802C223.67 92.8402 205.97 102.07 189.21 112.95C179.72 119.11 170.46 125.92 162.14 133.78C160.15 135.66 157.56 136.93 156.54 139.72C156.14 139.72 155.61 139.54 155.37 139.73C149.65 144.48 144.4 149.69 139.59 155.36C139.41 155.57 139.65 156.13 139.69 156.52C137.46 156.86 136.44 158.81 135.23 160.25C125.26 172.11 115.97 184.48 107.92 197.75C95.3101 218.54 85.6001 240.58 79.1401 264.05C76.4301 273.88 74.0101 283.78 72.5601 293.86C70.8601 305.65 68.8801 317.46 69.7901 329.46C68.5101 337.33 68.5601 345.2 69.8901 353.06C69.8801 355.18 69.6501 357.32 69.8901 359.42C71.6601 375.2 73.9801 390.84 78.1701 406.25C82.2201 421.14 87.4701 435.5 93.8001 449.53C103.12 470.18 115.37 489.02 129.41 506.69C132.44 510.5 135.03 515.1 139.87 517.28L139.91 517.32ZM108.15 578.71C107.93 579.05 107.57 579.38 107.63 579.58C107.71 579.84 108.12 580.14 108.41 580.16C108.95 580.19 109.39 579.84 109.17 579.25C109.08 579.01 108.58 578.93 108.16 578.71H108.15Z" fill="#E74622"/>
<path d="M609.76 533.23C608.03 533.01 607.21 534.03 606.33 535.36C600.5 544.15 593.19 551.72 586.34 559.68C579.32 567.85 571.65 575.39 563.8 582.68C554.71 591.12 545.35 599.29 534.92 606.25C530.92 608.92 527.27 612.47 522.98 614.85C516.7 618.33 511.45 623.49 504.54 625.95C502.44 626.7 501.2 628.88 499.03 629.78C488.15 634.32 478.33 640.9 467.2 645.16C459.07 648.27 450.55 650.61 442.64 654.61C439.44 656.23 435.16 657.94 430.99 657.65C427.73 657.42 425.57 659.89 422.6 660.6C413.52 662.77 404.37 664.57 395.24 666.48C368.3 672.13 340.96 671.89 313.7 670.99C301.93 670.61 290.08 668.75 278.44 666.25C268.77 664.17 258.9 662.75 249.48 659.87C244.58 658.37 239.61 656.9 234.68 655.43C222.92 651.93 211.73 646.95 200.39 642.42C193.49 639.66 186.84 636.13 180.35 632.27C175.35 629.3 170.41 625.92 164.75 624.04C162.05 623.14 160.26 620.82 158 619.22C152.65 615.42 147.25 611.57 141.77 608.09C136.19 604.55 131.45 600.01 125.88 596.48C120.63 593.15 116.38 588.25 111.43 583.8C114.01 583.26 115.37 585.11 116.82 586.06C124.97 591.41 132.77 597.34 141.08 602.42C147.57 606.39 154.77 609.2 161.43 612.93C172.43 619.08 183.91 624.28 195.71 628.48C206.67 632.39 217.76 636.07 229.17 638.82C241.11 641.7 253.17 643.8 265.22 646.02C271.17 647.12 277.28 647.36 283.3 648.11C292.51 649.26 301.8 649.07 311.03 649.41C319.41 649.72 327.92 648.99 336.37 648.34C343.35 647.8 350.36 647.67 357.29 646.49C365.85 645.04 374.46 643.99 382.97 642.1C392.5 639.98 402.05 637.87 411.36 635.03C420.88 632.13 430.43 629.22 439.53 625.01C447.39 621.38 455.31 617.89 463.18 614.29C469.81 611.26 475.85 607.29 482.23 603.89C493.26 598 503.23 590.43 513.69 583.64C520.63 579.13 526.61 573.15 533.01 567.81C543.9 558.73 553.95 548.72 563.43 538.26C571.29 529.58 579.03 520.66 585.34 510.64C589.04 504.77 593.59 499.44 597.3 493.57C602 486.14 606.04 478.31 610.18 470.53C613.12 464.99 615.58 459.21 618.67 453.76C622.97 446.17 625.32 437.72 629.03 429.89C631.41 424.86 632.68 419.44 634.27 414.23C636.93 405.5 639.99 396.76 641.51 387.79C643.29 377.29 645.15 366.79 646.78 356.26C649.22 340.48 649.93 324.61 649.53 308.81C649.11 292.36 648.58 275.8 645.18 259.54C643.78 252.88 643.41 245.97 641.65 239.43C638.71 228.54 636.37 217.5 632.45 206.85C628 194.77 623.89 182.58 618.01 171.08C613.96 163.16 610.32 155.05 606.08 147.23C601.81 139.36 596.61 132.12 591.76 124.64C590.63 122.9 589.75 121.22 589.95 119.12C593.23 119.74 594.37 122.98 595.92 125.04C602.14 133.32 608.91 141.24 614.29 150.14C616.66 154.06 620.02 157.44 621.98 161.45C624.95 167.54 628.8 173.09 631.82 179.16C633.89 183.32 636.06 187.5 638.36 191.55C641 196.22 642.56 201.26 644.73 206.07C647.75 212.78 650.63 219.58 652.83 226.53C654.39 231.47 657.38 236.11 657.01 241.63C656.77 245.25 659.74 247.68 660.57 251.09C664.26 266.32 666.7 281.72 669.18 297.18C672.2 315.96 671.29 334.74 671.18 353.52C671.1 366.42 669.01 379.25 667.04 392.04C665.78 400.24 663.39 408.19 662.28 416.44C661.81 419.92 660.52 423.66 658.82 427.12C657.01 430.81 656.44 435.17 655.69 439.19C655.11 442.31 653.57 444.81 652.49 447.48C650.64 452.05 649.7 456.89 647.77 461.38C643.91 470.34 640.72 479.74 635.7 488.02C630.9 495.92 627.72 504.73 622.21 512.1C618.2 517.46 615.57 523.72 610.92 528.59C609.75 529.82 609.82 531.21 610.06 532.68C610.07 532.91 609.98 533.09 609.78 533.21L609.76 533.23Z" fill="#932925"/>
<path d="M325.78 604.22C315.5 605.06 305.42 603.24 295.34 601.81C279.04 599.49 263.14 595.3 247.68 589.75C221.85 580.48 197.85 567.7 176 550.97C169.26 545.81 162.51 540.71 156.64 534.56C162.51 528.63 168.39 522.7 174.24 516.75C179.87 511.03 180.37 504.05 175.57 499.09C170.67 494.03 163.43 494.44 157.63 500.1C152.8 504.81 147.97 509.53 143.15 514.24C143.12 512.5 141.84 511.35 140.97 510.08C134.85 501.14 129.63 491.6 125.28 481.78C119.65 469.08 114.57 456.13 110.7 442.67C106.82 429.17 104.07 415.48 101.85 401.72C99.47 386.94 99.78 371.89 99.98 356.91C100 355.54 101.8 354.13 99.97 352.78C101.33 351.12 103.65 350.99 105.14 349.38C109.17 345 110.4 336.36 102.32 330.81C103.3 325.11 104.14 319.38 105.29 313.71C107.82 301.31 111.41 289.21 115.75 277.31C119.68 266.53 123.9 255.92 129.23 245.74C135.54 233.7 142.12 221.84 150.29 210.94C153.29 206.93 156.52 203.09 159.59 199.15C166.27 190.6 173.78 182.84 181.34 175.15C186.32 170.08 192.17 165.88 197.33 160.97C204.27 154.38 212.35 149.32 220.11 143.91C227.51 138.74 235.37 134.12 243.5 130C251.38 126.01 259.4 122.35 267.5 118.86C272.92 116.52 278.58 114.69 284.2 112.85C293.1 109.94 302.07 107.25 311.3 105.54C316.73 104.54 322.14 103.4 327.56 102.32C334.89 110.55 343.76 109.57 348.85 99.9698C352.99 100.54 356.99 99.1898 361.1 99.1598C371.56 99.0898 381.97 99.5898 392.39 100.69C403.54 101.87 414.64 103.17 425.62 105.46C436.6 107.74 447.34 110.9 457.92 114.54C462.61 116.16 467.35 117.79 471.89 119.79C478.16 122.55 484.21 125.81 490.35 128.85C498.71 132.98 506.99 137.25 514.2 143.27C509.44 148.09 504.67 152.89 499.94 157.74C497.34 160.41 495.66 163.54 496.14 167.4C496.74 172.27 499.28 175.83 503.95 177.56C508.69 179.31 512.87 177.99 516.38 174.58C522.58 168.57 528.68 162.46 534.82 156.4C543.29 163.58 549.64 172.59 556.03 181.5C570.46 201.62 581.86 223.41 590.18 246.7C596.65 264.82 601.15 283.51 603.46 302.66C604.54 311.61 605.55 320.57 605.02 329.62C596.52 329.6 588.02 329.56 579.51 329.58C571.82 329.6 566.8 334.2 566.71 341.25C566.62 348.11 571.82 352.95 579.42 353.02C587.92 353.09 596.43 353.09 604.93 353.12C604.67 364.67 603.1 376.07 600.92 387.39C596.82 408.67 590.34 429.2 581.22 448.86C574.25 463.88 565.97 478.13 556.41 491.71C550.69 499.84 544.47 507.5 538.06 515.05C537.04 516.25 536.17 517.7 534.25 517.5C528.2 511.53 522.19 505.52 516.09 499.59C510.83 494.47 503.74 494.26 499 498.96C494.29 503.63 494.39 510.88 499.41 516.1C504.11 520.98 508.96 525.72 513.77 530.49C515.25 531.95 516.28 533.94 518.48 534.57C515.56 539.29 511.01 542.37 506.8 545.7C492.76 556.81 477.99 566.85 462.01 575.02C439.49 586.54 416.07 595.39 391.11 600.14C377.93 602.64 364.74 604.57 351.36 605.21C350.66 605.24 350.06 605.25 349.49 604.82C349.47 596.08 349.55 587.34 349.4 578.6C349.28 571.07 344.36 566.16 337.28 566.19C330.64 566.22 325.89 571.44 325.85 578.81C325.8 587.29 325.78 595.76 325.75 604.24L325.78 604.22ZM281.9 316.89C268.47 318.56 255.01 320.08 241.6 321.94C220.67 324.84 199.97 328.93 179.62 334.67C176.02 335.69 174.1 337.81 174.3 341.52C174.49 345.12 176.82 346.9 181.12 347.25C187.87 347.8 194.65 348.18 201.35 349.06C228.14 352.59 254.97 353.53 281.88 350.65C282.41 357.05 285.56 362.36 288.89 367.62C299.48 384.35 314.86 393.07 334.41 394.32C343.7 394.91 352.69 393.3 361.3 389.17C374.71 382.73 384.92 373.26 390.44 359.4C395.01 347.93 397 336.03 393.59 323.73C390.65 313.12 386.3 303.23 377.7 296.03C372.99 292.08 372.18 288.35 374.08 282.46C386.5 243.9 397.83 205.01 406.29 165.35C408.8 153.6 411.32 141.83 412.08 129.78C412.3 126.33 410.84 123.98 407.62 123.23C404.43 122.49 401.48 123.32 399.89 126.6C398.44 129.58 397.2 132.67 395.7 135.62C385.57 155.62 376.72 176.21 368.45 197C358.16 222.85 348.69 249.04 341.82 276.07C341.17 278.64 339.85 279.59 337.35 279.5C331.89 279.3 326.67 280.24 321.36 281.74C304.69 286.45 293.22 296.92 285.65 312.21C284.81 313.91 284.38 316.32 281.92 316.87L281.9 316.89Z" fill="#E2E2FD"/>
<path d="M327.57 102.33C322.15 103.41 316.74 104.55 311.31 105.55C302.08 107.25 293.11 109.95 284.21 112.86C278.59 114.7 272.93 116.53 267.51 118.87C259.42 122.36 251.4 126.02 243.51 130.01C235.38 134.12 227.52 138.74 220.12 143.92C212.36 149.34 204.28 154.4 197.34 160.98C192.18 165.88 186.33 170.09 181.35 175.16C173.78 182.85 166.28 190.61 159.6 199.16C156.53 203.1 153.3 206.94 150.3 210.95C142.13 221.85 135.55 233.71 129.24 245.75C123.91 255.93 119.69 266.54 115.76 277.32C111.42 289.22 107.83 301.32 105.3 313.72C104.14 319.39 103.31 325.12 102.33 330.82C99.4302 329.73 96.4202 329.54 93.3402 329.57C85.5102 329.64 77.6702 329.56 69.8402 329.54C68.9202 317.53 70.9102 305.73 72.6102 293.94C74.0602 283.86 76.4802 273.96 79.1902 264.13C85.6502 240.66 95.3502 218.62 107.97 197.83C116.02 184.56 125.31 172.19 135.28 160.33C136.5 158.88 137.51 156.94 139.75 156.6C145.67 162.47 151.6 168.34 157.51 174.22C159.84 176.54 162.52 178.14 165.86 178.33C170.77 178.6 175.26 175.8 177.31 171.29C179.36 166.76 178.49 162.02 174.73 158.17C168.72 152.01 162.65 145.92 156.6 139.8C157.62 137.01 160.21 135.74 162.2 133.86C170.52 125.99 179.77 119.19 189.27 113.03C206.03 102.15 223.73 92.9199 242.64 85.9599C255.85 81.0999 269.24 77.0999 282.95 74.1999C292.89 72.0999 302.99 70.6799 313.14 69.7399C317.36 69.3499 321.54 68.4699 325.8 69.2399C325.84 77.3199 325.94 85.4099 325.88 93.4899C325.86 96.5999 326.3 99.5499 327.61 102.37L327.57 102.33Z" fill="#D0CFF2"/>
<path d="M514.22 143.29C507 137.26 498.72 133 490.37 128.87C484.22 125.83 478.18 122.57 471.91 119.81C467.37 117.81 462.63 116.17 457.94 114.56C447.37 110.91 436.62 107.76 425.64 105.48C414.66 103.2 403.55 101.9 392.41 100.71C381.99 99.6099 371.59 99.0999 361.12 99.1799C357.01 99.2099 353 100.55 348.87 99.9899C349.39 97.2599 349.52 94.51 349.51 91.73C349.47 84.21 349.55 76.6999 349.59 69.1799C357.73 68.4799 365.68 70.27 373.72 70.97C383.91 71.86 393.87 74.17 403.77 76.49C412.74 78.59 421.48 81.8199 430.19 84.9299C438.37 87.8499 446.42 91.1399 454.21 95.0799C463.54 99.7899 472.75 104.65 481.57 110.27C493.27 117.74 504.22 126.2 514.8 135.16C516.21 136.35 517.9 137.28 518.17 139.36C516.86 140.67 515.55 141.99 514.24 143.31L514.22 143.29Z" fill="#D0CFF2"/>
<path d="M99.9699 352.77C101.81 354.12 99.9999 355.54 99.9799 356.9C99.7799 371.88 99.4699 386.93 101.85 401.71C104.07 415.47 106.81 429.16 110.7 442.66C114.57 456.12 119.65 469.08 125.28 481.77C129.64 491.59 134.85 501.12 140.97 510.07C141.84 511.34 143.12 512.48 143.15 514.23C142.5 515.72 141.03 516.34 139.91 517.33C135.07 515.15 132.48 510.55 129.45 506.74C115.41 489.08 103.15 470.23 93.8399 449.58C87.5099 435.55 82.2599 421.2 78.2099 406.3C74.0199 390.89 71.6999 375.25 69.9299 359.47C69.6999 357.38 69.9299 355.23 69.9299 353.11C79.9399 352.99 89.9599 352.88 99.9699 352.76V352.77Z" fill="#D0CFF2"/>
<path d="M349.58 69.1699C349.55 76.6899 349.46 84.1999 349.5 91.7199C349.52 94.4999 349.38 97.2499 348.86 99.9799C343.77 109.59 334.89 110.57 327.57 102.33C326.26 99.5099 325.82 96.5599 325.84 93.4499C325.9 85.3699 325.8 77.2799 325.76 69.1999C333.7 68.4799 341.64 67.9699 349.58 69.1699Z" fill="#474647"/>
<path d="M139.91 517.33C141.03 516.34 142.5 515.71 143.15 514.23C147.98 509.52 152.81 504.81 157.63 500.09C163.43 494.43 170.66 494.02 175.57 499.08C180.38 504.04 179.87 511.02 174.24 516.74C168.39 522.69 162.51 528.61 156.64 534.55C150.28 529.57 144.06 524.45 139.91 517.33Z" fill="#474647"/>
<path d="M514.22 143.29C515.53 141.97 516.84 140.66 518.15 139.34C523.27 141.98 526.38 146.85 530.49 150.61C532.25 152.22 534.62 153.57 534.84 156.41C528.7 162.48 522.59 168.58 516.4 174.59C512.89 178 508.71 179.33 503.97 177.57C499.3 175.84 496.76 172.29 496.16 167.41C495.69 163.56 497.36 160.42 499.96 157.75C504.69 152.9 509.46 148.1 514.22 143.28V143.29Z" fill="#474647"/>
<path d="M325.78 604.22C325.81 595.74 325.83 587.27 325.88 578.79C325.93 571.42 330.68 566.2 337.31 566.17C344.38 566.14 349.3 571.05 349.43 578.58C349.57 587.32 349.49 596.06 349.52 604.8C342.18 605.6 334.82 605.01 327.47 605.05C326.79 605.05 326.19 604.83 325.79 604.22H325.78Z" fill="#474647"/>
<path d="M518.51 534.55C516.31 533.92 515.28 531.93 513.8 530.47C508.98 525.7 504.13 520.97 499.44 516.08C494.42 510.86 494.33 503.61 499.03 498.94C503.77 494.24 510.86 494.46 516.12 499.57C522.21 505.5 528.23 511.51 534.28 517.48C534.28 519.31 532.87 520.27 531.78 521.37C527.39 525.79 522.94 530.15 518.51 534.54V534.55Z" fill="#474647"/>
<path d="M99.97 352.77C89.96 352.89 79.9399 353 69.9299 353.12C68.5999 345.26 68.55 337.39 69.83 329.52C77.66 329.54 85.4999 329.62 93.3299 329.55C96.4099 329.52 99.41 329.72 102.32 330.8C110.4 336.35 109.17 344.99 105.14 349.37C103.65 350.98 101.33 351.11 99.97 352.77Z" fill="#474647"/>
<path d="M156.57 139.77C162.62 145.89 168.69 151.99 174.7 158.14C178.46 161.99 179.34 166.73 177.28 171.26C175.24 175.77 170.75 178.57 165.83 178.3C162.49 178.11 159.81 176.51 157.48 174.19C151.57 168.3 145.64 162.44 139.72 156.57C139.68 156.17 139.44 155.62 139.62 155.41C144.42 149.74 149.68 144.52 155.4 139.78C155.63 139.59 156.17 139.76 156.57 139.77Z" fill="#474647"/>
<path d="M604.96 353.12C596.46 353.09 587.95 353.09 579.45 353.02C571.85 352.96 566.65 348.11 566.74 341.25C566.83 334.2 571.85 329.6 579.54 329.58C588.04 329.56 596.54 329.6 605.05 329.62C605.73 336.18 606.04 342.76 605.73 349.36C605.67 350.64 606.09 352.05 604.96 353.12Z" fill="#474647"/>
<path d="M589.91 119.15C586.77 118.43 585.94 117.47 584.55 112.45C586.76 115.02 589.25 116.28 589.92 119.14L589.91 119.15Z" fill="#ECB022"/>
<path d="M108.15 578.72C108.58 578.93 109.07 579.02 109.16 579.26C109.38 579.85 108.94 580.2 108.4 580.17C108.12 580.16 107.71 579.85 107.62 579.59C107.56 579.39 107.92 579.06 108.14 578.72H108.15Z" fill="#ECB022"/>
<path d="M281.9 316.89C284.36 316.33 284.79 313.93 285.63 312.23C293.21 296.94 304.67 286.48 321.34 281.76C326.64 280.26 331.87 279.33 337.33 279.52C339.83 279.61 341.15 278.66 341.8 276.09C348.67 249.06 358.14 222.87 368.43 197.02C376.71 176.23 385.55 155.63 395.68 135.64C397.18 132.68 398.42 129.6 399.87 126.62C401.47 123.33 404.41 122.51 407.6 123.25C410.83 124 412.28 126.36 412.06 129.8C411.3 141.85 408.78 153.62 406.27 165.37C397.81 205.03 386.48 243.91 374.06 282.48C372.16 288.37 372.97 292.1 377.68 296.05C386.27 303.25 390.62 313.14 393.57 323.75C396.98 336.05 394.98 347.95 390.42 359.42C384.9 373.28 374.69 382.75 361.28 389.19C352.67 393.32 343.69 394.93 334.39 394.34C314.84 393.09 299.46 384.37 288.87 367.64C285.54 362.38 282.39 357.07 281.86 350.67C283.27 350.37 284.66 349.97 286.08 349.79C293.22 348.89 300.36 347.99 307.32 346.05C308.68 346.74 308.76 348.2 309.3 349.38C311.26 353.69 314.02 357.43 317.62 360.45C330 370.84 348.55 370.01 359.59 358.31C370.42 346.83 371.62 330.07 360.89 316.84C350.68 304.24 332.32 302.6 319.19 312.26C317.92 313.2 316.82 314.42 315.21 314.84C312.69 314.89 310.16 314.83 307.65 315C299.06 315.6 290.47 316.27 281.88 316.92L281.9 316.89Z" fill="#C89B66"/>
<path d="M281.9 316.89C290.49 316.24 299.08 315.57 307.67 314.97C310.18 314.8 312.71 314.86 315.23 314.81C311.12 320.31 307.69 326.07 306.7 333.1C306.08 337.51 307.17 341.72 307.34 346.03C300.38 347.97 293.24 348.88 286.1 349.77C284.68 349.95 283.28 350.35 281.88 350.65C254.97 353.53 228.14 352.59 201.35 349.06C194.64 348.18 187.87 347.79 181.12 347.25C176.82 346.9 174.5 345.12 174.3 341.52C174.1 337.81 176.02 335.68 179.62 334.67C199.98 328.93 220.67 324.84 241.6 321.94C255.01 320.08 268.46 318.56 281.9 316.89Z" fill="#F7BD8F"/>
<path d="M307.35 346.03C307.18 341.72 306.08 337.51 306.71 333.1C307.7 326.07 311.13 320.31 315.24 314.81C316.85 314.39 317.94 313.17 319.22 312.23C332.34 302.57 350.71 304.21 360.92 316.81C371.65 330.05 370.45 346.81 359.62 358.28C348.58 369.98 330.03 370.81 317.65 360.42C314.05 357.4 311.29 353.66 309.33 349.35C308.8 348.18 308.71 346.71 307.35 346.02V346.03Z" fill="#B07F4A"/>
</svg>
