<svg width="512" height="739" viewBox="0 0 512 739" fill="none" xmlns="http://www.w3.org/2000/svg">
<path d="M363.16 94.61C363.16 65.28 363.16 35.96 363.16 6.63001C363.16 2.31001 365.38 0.150001 369.82 0.150001C414.98 0.150001 460.13 0.11001 505.29 0.19001C512.72 0.20001 512.06 -1.21999 510.69 6.44001C507.23 25.71 503.19 44.88 499.47 64.11C491.36 105.98 482.93 147.8 475.49 189.8C473.81 199.26 475.71 209.35 475.88 219.16C476.29 241.79 476.2 264.45 477.19 287.06C477.88 302.88 477.22 318.7 478.16 334.47C479.06 349.62 478.24 364.78 479.14 379.89C480.09 395.87 479.22 411.87 480.17 427.8C481.08 443.11 480.51 458.42 481.06 473.72C482.19 505.32 482.44 536.94 483.24 568.55C483.62 583.69 483.22 598.86 484.15 613.96C485.13 629.77 484.22 645.6 485.16 661.37C486.1 677.02 485.45 692.66 486.13 708.29C486.38 714.1 486.69 719.9 486.91 725.72C487.01 728.34 486.35 730.04 483.74 731.18C471.61 736.47 458.98 738.85 445.8 737.77C440.15 737.31 436.2 732.21 436.07 725.7C435.93 718.87 436.07 712.04 436.03 705.21C435.99 697.09 431.11 691.95 423.13 691.91C406.3 691.83 389.47 691.83 372.64 691.91C364.42 691.95 359.21 697.03 359.01 705.27C358.84 712.1 359.01 718.93 358.96 725.76C358.9 733.65 354.8 737.81 346.95 737.86C335.79 737.92 324.62 737.91 313.46 737.86C305.75 737.83 301.31 733.62 301.11 725.89C300.93 719.06 301.11 712.23 301.06 705.4C301.01 696.96 296.14 691.93 287.84 691.9C271.18 691.84 254.51 691.83 237.85 691.9C229.14 691.93 224.05 697.2 224.01 706.02C223.98 712.69 224.06 719.35 223.99 726.02C223.91 733.39 219.53 737.81 212.15 737.85C199.65 737.92 187.16 737.94 174.66 737.85C167.68 737.8 163.17 733.25 163.05 726.2C162.93 719.2 163.07 712.2 163.01 705.21C162.94 697.36 157.72 691.97 149.89 691.93C132.89 691.84 115.9 691.82 98.9 691.93C91.14 691.98 86.15 697.05 85.99 704.83C85.85 711.83 86 718.83 85.94 725.82C85.87 733.42 81.41 737.75 73.74 737.88C64.24 738.04 54.81 737.79 45.58 735.02C40.93 733.62 38.97 731.11 39.02 726.02C39.28 701.03 38.85 676.03 39.28 651.04C40.78 564.75 39.24 478.45 40.38 392.18C41.26 325.55 40.67 258.92 41.1 192.3C41.16 182.27 37.58 172.73 35.48 163.01C24.17 110.59 12.7 58.21 1.17001 5.84C0.200012 1.42 0.92001 0.0400048 5.87001 0.0600048C52.36 0.260005 98.85 0.28 145.34 0.0400005C150.37 0.0100005 151.6 2.04001 151.85 6.21001C152.89 23.8 153.88 41.39 155.07 58.96C156.56 81 158.27 103.02 159.81 125.06C160.62 136.66 161.23 148.28 161.99 159.89C162.52 168.01 163.4 176.12 163.65 184.24C163.78 188.46 165.39 189.35 169.35 189.33C204.67 189.18 240 189.24 275.33 189.24C302.16 189.24 328.98 189.26 355.81 189.24C363.88 189.24 363.15 190.1 363.16 182.13C363.18 152.97 363.16 123.81 363.16 94.65V94.61ZM187.17 460.77C183.96 467.82 183.16 475.43 182.03 482.95C179.75 498.15 177.42 513.35 175.33 528.58C174.1 537.55 172.39 546.4 173.9 555.69C178.73 585.41 204.65 607.75 234.5 607.05C251.48 606.65 268.47 606.76 285.45 607.08C293.44 607.23 300.9 605.71 308.32 603.04C331.46 594.73 349.18 567.84 346.84 543.48C345.69 531.48 343.77 519.53 341.61 507.66C338.88 492.69 337.24 477.53 333.65 462.72C343.14 456.83 353.59 452.8 363.25 447.27C366.69 445.3 369.47 445.48 372.89 447.4C386.95 455.31 401.14 462.99 415.33 470.67C417.24 471.71 419.24 473.74 421.68 471.77C423.9 469.98 423.12 467.42 422.79 465.23C420.46 449.64 418.19 434.04 415.44 418.53C414.67 414.19 415.55 411.38 418.72 408.47C430.71 397.43 442.5 386.17 454.36 374.99C455.81 373.62 457.51 372.28 456.73 369.92C456 367.69 454.11 367.27 452.01 366.94C435.62 364.35 419.26 361.62 402.87 359.02C399.72 358.52 397.44 357.39 395.98 354.22C389.09 339.27 381.99 324.42 374.96 309.53C373.98 307.46 373.48 304.98 370.39 304.99C367.59 304.99 366.95 307.23 365.98 309.12C358.6 323.47 351.19 337.8 343.92 352.21C342.39 355.24 340.58 357.43 337 357.87C320.7 359.88 304.4 362 288.1 364C285.76 364.29 283.22 364.1 282.22 366.79C281.18 369.57 283.44 371.02 285.05 372.64C296.32 383.97 307.55 395.35 318.94 406.57C321.43 409.02 322.71 411.5 322.02 414.95C320.61 421.94 319.26 428.94 317.88 435.94C316.99 435.2 316.03 434.53 315.23 433.7C287 404.35 240.47 402.08 209.81 428.64C208.73 429.58 207.64 430.13 206.21 429.95C205.39 425.04 204.92 420.03 203.62 415.25C202.75 412.06 203.91 410.31 205.93 408.31C217.76 396.58 229.51 384.78 241.29 372.99C242.69 371.59 244.45 370.29 243.83 367.93C243.15 365.35 240.96 365.03 238.74 364.73C222.29 362.52 205.86 360.16 189.39 358.13C185.97 357.71 184.07 356.38 182.56 353.37C175.35 338.93 167.98 324.57 160.59 310.22C159.51 308.12 159.12 305.05 155.86 305.08C152.44 305.11 151.88 308.24 150.77 310.54C143.9 324.77 136.99 338.99 130.39 353.35C128.71 357.01 126.34 358.5 122.53 359.05C106.93 361.34 91.34 363.76 75.8 366.39C73.46 366.79 70.02 365.98 69.13 369.56C68.32 372.81 71.16 374.19 72.87 376.11C73.31 376.6 73.86 377 74.35 377.45C85.81 388.34 97.27 399.23 108.74 410.11C110.27 411.56 111.16 413.03 110.78 415.36C108.06 431.9 105.49 448.47 102.8 465.01C102.4 467.44 101.1 469.91 103.85 471.78C106.57 473.63 108.61 471.51 110.69 470.39C124.9 462.74 139.07 455.01 153.25 447.3C155.18 446.25 157.21 445.04 159.37 446.17C168.63 451.02 178.36 455 187.16 460.74L187.17 460.77ZM79.27 25.08C64.94 25.08 50.61 25.13 36.28 25.04C33.42 25.02 32.19 25.28 32.89 28.82C36.71 48.13 40.21 67.51 43.85 86.86C46.9 103.12 49.98 119.38 53.06 135.64C56.14 151.9 59.21 168.16 62.33 184.41C62.77 186.7 63.79 188.09 66.66 188.08C90.15 187.96 113.65 187.96 137.14 188.07C140.28 188.08 141.3 186.93 141.04 183.96C140.22 174.55 139.85 165.09 138.64 155.74C137.07 143.58 136.17 131.37 135.05 119.18C134.2 109.94 134.02 100.62 132.78 91.44C130.03 71.08 128.95 50.57 127.12 30.13C126.77 26.21 125.57 24.98 121.74 25.03C107.58 25.19 93.42 25.09 79.25 25.1L79.27 25.08ZM437.23 25.08C423.24 25.08 409.25 25.15 395.27 25.02C392.11 24.99 390.7 25.83 390.91 29.22C391.2 34.03 390.11 38.86 390.16 43.59C390.37 63.39 389.2 83.15 388.94 102.93C388.82 111.89 388.67 120.84 388.26 129.81C387.41 148.56 388.21 167.38 386.97 186.14C386.8 188.77 387.53 190.09 390.53 190.08C410.51 189.99 430.5 190 450.48 190.08C453.2 190.09 454.46 188.93 454.88 186.45C456.57 176.51 458.23 166.56 459.98 156.63C464.36 131.71 468.73 106.79 473.21 81.9C476.31 64.65 479.56 47.43 482.8 30.21C483.53 26.32 482.37 24.92 478.2 24.99C464.55 25.23 450.89 25.08 437.24 25.08H437.23ZM121.63 289.76C121.63 289.76 121.63 289.77 121.63 289.78C141.39 288.53 161.15 287.29 180.9 286.01C186.05 285.68 188.41 283.3 188.55 278.1C188.68 272.94 188.68 267.77 188.55 262.61C188.4 256.72 184.62 253.77 178.84 255.34C152.52 262.46 126.24 269.74 99.93 276.9C95.5 278.1 93.35 280.88 94.1 285.33C94.84 289.68 98.03 291.24 102.19 291C108.67 290.63 115.15 290.18 121.62 289.77L121.63 289.76ZM410.54 289.83C410.54 289.94 410.54 290.04 410.54 290.15C413.03 290.15 415.53 290.1 418.02 290.15C423.57 290.27 426.46 288.48 427.06 284.46C427.73 280.01 425.63 277.31 420.11 275.89C404.49 271.89 388.86 267.95 373.24 263.99C363.25 261.46 353.27 258.91 343.27 256.42C335.57 254.51 332.12 257.15 332.14 264.95C332.15 269.44 332.25 273.93 332.43 278.42C332.66 284.15 335.04 286.58 340.73 286.83C363.99 287.85 387.26 288.82 410.53 289.81L410.54 289.83Z" fill="#F6BC8E"/>
<path d="M333.66 462.72C337.25 477.53 338.89 492.69 341.62 507.66C343.78 519.53 345.7 531.48 346.85 543.48C349.19 567.85 331.46 594.73 308.33 603.04C300.91 605.71 293.44 607.23 285.46 607.08C268.48 606.76 251.48 606.66 234.51 607.05C204.66 607.75 178.74 585.41 173.91 555.69C172.4 546.4 174.11 537.55 175.34 528.58C177.43 513.35 179.76 498.16 182.04 482.95C183.17 475.43 183.97 467.82 187.18 460.77C193.44 463.82 199.7 466.86 205.95 469.92C207.78 470.81 209.67 471.68 211.6 470.46C213.71 469.14 213.22 466.86 212.88 465.01C210.76 453.31 208.48 441.64 206.25 429.96C207.67 430.14 208.77 429.58 209.85 428.65C240.51 402.1 287.03 404.37 315.27 433.71C316.07 434.54 317.03 435.21 317.92 435.95C316.22 445.39 314.6 454.84 312.74 464.24C312.3 466.48 311.68 468.45 313.8 470.09C315.99 471.78 317.88 470.43 319.8 469.5C324.43 467.25 329.05 464.98 333.68 462.72H333.66ZM265.12 522.93C265.08 509.3 265.09 495.66 264.96 482.03C264.94 479.97 265.76 478.72 267.15 477.37C271.79 472.85 276.25 468.14 280.85 463.57C284.25 460.2 285.62 456.26 283.69 451.8C281.87 447.59 278.37 445.74 273.69 445.8C264.88 445.92 256.06 445.9 247.25 445.81C242.61 445.76 239.08 447.53 237.27 451.82C235.38 456.31 236.74 460.19 240.16 463.57C244.77 468.12 249.17 472.9 253.83 477.4C255.24 478.76 256.07 479.96 256.05 482.02C255.92 495.65 255.93 509.29 255.89 522.92C242.58 522.93 229.27 522.94 215.95 522.96C207.89 522.98 204.49 527.02 205.99 535.07C211.19 562.96 238.53 585.32 268.99 579.91C291.05 575.99 310.49 556.56 313.86 534.49C314.98 527.16 311.45 522.98 304.06 522.96C291.08 522.93 278.1 522.93 265.12 522.91V522.93Z" fill="#F08F67"/>
<path d="M79.27 25.09C93.43 25.09 107.6 25.19 121.76 25.02C125.59 24.98 126.79 26.21 127.14 30.12C128.96 50.56 130.04 71.07 132.8 91.43C134.04 100.61 134.21 109.93 135.07 119.17C136.19 131.36 137.09 143.57 138.66 155.73C139.87 165.08 140.24 174.55 141.06 183.95C141.32 186.92 140.3 188.07 137.16 188.06C113.67 187.96 90.17 187.95 66.68 188.07C63.8 188.09 62.79 186.69 62.35 184.4C59.23 168.15 56.16 151.89 53.08 135.63C50 119.37 46.92 103.11 43.87 86.85C40.24 67.5 36.73 48.13 32.91 28.81C32.21 25.27 33.44 25.01 36.3 25.03C50.63 25.12 64.96 25.07 79.29 25.07L79.27 25.09Z" fill="#F09067"/>
<path d="M437.23 25.09C450.88 25.09 464.54 25.24 478.19 25C482.36 24.93 483.52 26.33 482.79 30.22C479.54 47.44 476.3 64.66 473.2 81.91C468.72 106.81 464.35 131.73 459.97 156.64C458.22 166.57 456.57 176.52 454.87 186.46C454.45 188.95 453.19 190.11 450.47 190.09C430.49 190.01 410.5 190 390.52 190.09C387.52 190.1 386.79 188.78 386.96 186.15C388.2 167.39 387.4 148.57 388.25 129.82C388.66 120.85 388.81 111.9 388.93 102.94C389.19 83.16 390.36 63.4001 390.15 43.6001C390.1 38.8601 391.18 34.03 390.9 29.23C390.7 25.85 392.1 25 395.26 25.03C409.25 25.16 423.24 25.09 437.22 25.09H437.23Z" fill="#F09067"/>
<path d="M206.23 429.96C208.46 441.64 210.74 453.31 212.86 465.01C213.2 466.87 213.69 469.14 211.58 470.46C209.65 471.68 207.76 470.81 205.93 469.92C199.68 466.86 193.42 463.82 187.16 460.77C178.36 455.03 168.64 451.05 159.37 446.2C157.21 445.07 155.18 446.28 153.25 447.33C139.07 455.04 124.91 462.77 110.69 470.42C108.61 471.54 106.57 473.66 103.85 471.81C101.1 469.94 102.4 467.47 102.8 465.04C105.49 448.49 108.06 431.93 110.78 415.39C111.16 413.06 110.27 411.59 108.74 410.14C97.27 399.26 85.81 388.37 74.35 377.48C73.87 377.02 73.31 376.63 72.87 376.14C71.16 374.22 68.32 372.83 69.13 369.59C70.02 366.01 73.47 366.82 75.8 366.42C91.35 363.79 106.93 361.36 122.53 359.08C126.34 358.52 128.71 357.04 130.39 353.38C136.99 339.02 143.9 324.8 150.77 310.57C151.88 308.27 152.43 305.14 155.86 305.11C159.12 305.08 159.51 308.15 160.59 310.25C167.98 324.6 175.35 338.96 182.56 353.4C184.06 356.41 185.97 357.74 189.39 358.16C205.86 360.19 222.29 362.55 238.74 364.76C240.96 365.06 243.14 365.38 243.83 367.96C244.46 370.32 242.69 371.62 241.29 373.02C229.52 384.8 217.76 396.61 205.93 408.34C203.91 410.34 202.75 412.08 203.62 415.28C204.92 420.06 205.39 425.07 206.21 429.98L206.23 429.96ZM205.74 384.4C205.44 382.4 204.16 382.14 202.78 381.95C195.75 380.98 188.75 379.68 181.69 379.09C175.65 378.58 171.12 377.01 168.7 370.65C166.34 364.46 162.9 358.69 159.88 352.76C159.08 351.19 158.62 349.13 156.29 349.08C153.58 349.01 153.23 351.44 152.56 353.14C149.7 360.44 145.58 367.12 142.47 374.28C141.07 377.49 138.76 378.58 135.59 379.02C128.07 380.08 120.55 381.19 113.09 382.59C111.5 382.89 109.04 382.03 108.28 384.32C107.41 386.93 109.73 388.19 111.22 389.62C116.96 395.14 122.74 400.63 128.63 406.01C130.7 407.91 131.38 410.02 130.93 412.69C129.55 420.83 128.25 428.98 126.81 437.11C126.55 438.56 125.56 439.98 127.02 441.24C128.68 442.67 130.19 441.44 131.59 440.69C139.07 436.71 146.56 432.75 153.93 428.59C156.04 427.4 157.7 427.2 159.9 428.34C167.27 432.19 174.74 435.86 182.19 439.56C183.79 440.36 185.6 441.84 187.26 440.46C188.79 439.19 188.16 436.99 187.86 435.25C186.54 427.6 185.29 419.92 183.55 412.36C182.82 409.17 183.34 407.04 185.64 404.82C191.63 399.04 197.45 393.1 203.32 387.19C204.24 386.27 205.04 385.23 205.77 384.39L205.74 384.4Z" fill="#FE9701"/>
<path d="M333.66 462.72C329.03 464.98 324.41 467.24 319.78 469.5C317.86 470.43 315.97 471.79 313.78 470.09C311.66 468.45 312.28 466.48 312.72 464.24C314.58 454.84 316.2 445.38 317.9 435.95C319.28 428.95 320.63 421.95 322.04 414.96C322.73 411.51 321.45 409.03 318.96 406.58C307.57 395.37 296.35 383.99 285.07 372.65C283.46 371.03 281.2 369.58 282.24 366.8C283.24 364.11 285.78 364.29 288.12 364.01C304.43 362 320.72 359.89 337.02 357.88C340.61 357.44 342.41 355.25 343.94 352.22C351.21 337.81 358.62 323.48 366 309.13C366.97 307.24 367.61 305.01 370.41 305C373.49 305 374 307.47 374.98 309.54C382 324.43 389.11 339.28 396 354.23C397.46 357.4 399.73 358.53 402.89 359.03C419.27 361.63 435.64 364.36 452.03 366.95C454.14 367.28 456.02 367.7 456.75 369.93C457.53 372.29 455.83 373.63 454.38 375C442.52 386.18 430.73 397.44 418.74 408.48C415.58 411.39 414.69 414.2 415.46 418.54C418.22 434.05 420.49 449.65 422.81 465.24C423.14 467.43 423.92 469.99 421.7 471.78C419.25 473.75 417.26 471.71 415.35 470.68C401.16 463 386.97 455.32 372.91 447.41C369.49 445.49 366.71 445.31 363.27 447.28C353.61 452.81 343.16 456.85 333.67 462.73L333.66 462.72ZM417.86 385.55C417.67 383.62 416.37 383.22 414.74 382.98C408.36 382.03 401.94 381.27 395.66 379.9C390.95 378.87 385.22 379.95 382.71 373.58C379.85 366.32 376.35 359.32 373.05 352.25C372.37 350.8 372.08 348.64 370.2 348.46C368.01 348.25 367.33 350.4 366.52 352C362.99 358.98 359.38 365.93 356.03 373C354.45 376.33 352.44 377.79 348.5 378.21C340.79 379.03 333.14 380.52 325.38 381.19C323.7 381.33 321.37 381.5 320.58 383.34C319.64 385.54 322.03 386.44 323.2 387.64C328.89 393.49 334.66 399.27 340.5 404.97C342.47 406.89 343.05 408.65 342.42 411.57C340.58 419.96 339.35 428.49 337.81 436.94C337.57 438.23 336.74 439.5 338.27 440.5C339.64 441.4 340.83 440.57 342 439.99C349.6 436.21 357.25 432.52 364.76 428.55C367.41 427.15 369.56 427.07 372.17 428.56C379.24 432.6 386.44 436.41 393.55 440.37C394.98 441.17 396.35 442.74 398.03 441.57C399.81 440.33 399.07 438.16 398.83 436.46C397.67 428.45 396.34 420.47 395.04 412.48C394.6 409.77 395.51 407.72 397.55 405.86C403.55 400.36 409.44 394.73 415.33 389.11C416.39 388.1 417.72 387.22 417.86 385.56V385.55Z" fill="#FE9701"/>
<path d="M121.63 289.76C115.15 290.18 108.68 290.62 102.2 290.99C98.04 291.23 94.85 289.67 94.11 285.32C93.36 280.87 95.51 278.1 99.94 276.89C126.25 269.73 152.53 262.45 178.85 255.33C184.63 253.77 188.41 256.72 188.56 262.6C188.69 267.76 188.69 272.93 188.56 278.09C188.43 283.29 186.06 285.66 180.91 286C161.15 287.27 141.39 288.51 121.64 289.77C121.64 289.77 121.64 289.76 121.64 289.75L121.63 289.76Z" fill="#201F1D"/>
<path d="M410.54 289.83C387.27 288.84 364.01 287.87 340.74 286.85C335.04 286.6 332.66 284.17 332.44 278.44C332.26 273.95 332.16 269.46 332.15 264.97C332.13 257.17 335.58 254.53 343.28 256.44C353.28 258.93 363.26 261.48 373.25 264.01C388.88 267.97 404.51 271.91 420.12 275.91C425.64 277.33 427.74 280.02 427.07 284.48C426.46 288.5 423.57 290.3 418.03 290.17C415.54 290.11 413.04 290.17 410.55 290.17C410.55 290.06 410.55 289.96 410.55 289.85L410.54 289.83Z" fill="#201F1D"/>
<path d="M265.12 522.93C278.1 522.94 291.08 522.94 304.06 522.98C311.45 523 314.98 527.18 313.86 534.51C310.49 556.58 291.05 576.01 268.99 579.93C238.53 585.34 211.2 562.98 205.99 535.09C204.49 527.04 207.89 522.99 215.95 522.98C229.26 522.95 242.57 522.95 255.89 522.94C258.97 522.94 262.04 522.94 265.12 522.94V522.93Z" fill="#231B19"/>
<path d="M265.12 522.93C262.04 522.93 258.97 522.93 255.89 522.93C255.93 509.3 255.92 495.66 256.05 482.03C256.07 479.97 255.24 478.77 253.83 477.41C249.17 472.9 244.77 468.13 240.16 463.58C236.74 460.2 235.38 456.32 237.27 451.83C239.07 447.54 242.61 445.77 247.25 445.82C256.06 445.91 264.88 445.93 273.69 445.81C278.37 445.75 281.87 447.6 283.69 451.81C285.62 456.27 284.25 460.2 280.85 463.58C276.25 468.15 271.79 472.86 267.15 477.38C265.76 478.73 264.94 479.98 264.96 482.04C265.09 495.67 265.09 509.31 265.12 522.94V522.93Z" fill="#1D1D1B"/>
<path d="M205.75 384.4C205.02 385.24 204.22 386.28 203.3 387.2C197.43 393.1 191.61 399.05 185.62 404.83C183.32 407.05 182.8 409.19 183.53 412.37C185.27 419.93 186.52 427.61 187.84 435.26C188.14 437 188.77 439.2 187.24 440.47C185.58 441.85 183.77 440.37 182.17 439.57C174.72 435.87 167.25 432.2 159.88 428.35C157.68 427.2 156.02 427.4 153.91 428.6C146.54 432.77 139.05 436.73 131.57 440.7C130.17 441.45 128.66 442.68 127 441.25C125.54 439.99 126.53 438.57 126.79 437.12C128.23 428.99 129.53 420.84 130.91 412.7C131.36 410.03 130.68 407.91 128.61 406.02C122.73 400.65 116.95 395.16 111.2 389.63C109.71 388.2 107.39 386.93 108.26 384.33C109.02 382.05 111.48 382.9 113.07 382.6C120.53 381.19 128.05 380.08 135.57 379.03C138.75 378.58 141.06 377.5 142.45 374.29C145.56 367.13 149.69 360.45 152.54 353.15C153.21 351.45 153.55 349.02 156.27 349.09C158.6 349.15 159.06 351.2 159.86 352.77C162.88 358.7 166.32 364.48 168.68 370.66C171.1 377.02 175.63 378.59 181.67 379.1C188.73 379.69 195.73 380.99 202.76 381.96C204.14 382.15 205.41 382.41 205.72 384.41L205.75 384.4Z" fill="#FEBE00"/>
<path d="M417.85 385.55C417.71 387.21 416.38 388.09 415.32 389.1C409.43 394.72 403.54 400.35 397.54 405.85C395.5 407.72 394.59 409.76 395.03 412.47C396.33 420.46 397.66 428.44 398.82 436.45C399.07 438.14 399.8 440.31 398.02 441.56C396.34 442.73 394.98 441.15 393.54 440.36C386.42 436.4 379.22 432.6 372.16 428.55C369.55 427.06 367.4 427.14 364.75 428.54C357.25 432.51 349.59 436.2 341.99 439.98C340.82 440.56 339.63 441.39 338.26 440.49C336.73 439.49 337.57 438.23 337.8 436.93C339.34 428.47 340.57 419.95 342.41 411.56C343.05 408.65 342.46 406.89 340.49 404.96C334.65 399.26 328.88 393.48 323.19 387.63C322.02 386.43 319.63 385.53 320.57 383.33C321.36 381.49 323.68 381.32 325.37 381.18C333.13 380.51 340.77 379.02 348.49 378.2C352.43 377.78 354.44 376.32 356.02 372.99C359.37 365.92 362.98 358.97 366.51 351.99C367.32 350.39 368 348.24 370.19 348.45C372.07 348.63 372.36 350.79 373.04 352.24C376.34 359.32 379.84 366.32 382.7 373.57C385.21 379.93 390.94 378.86 395.65 379.89C401.94 381.26 408.36 382.03 414.73 382.97C416.36 383.21 417.66 383.61 417.85 385.54V385.55Z" fill="#FEC300"/>
</svg>
